PathFileType	4	(X/Y/Z)	C:/Users/opensim2020/Desktop/walking_exp_matlab/subject03_walking15_straight_03.trc																																																																																																																																											
DataRate	CameraRate	NumFrames	NumMarkers	Units	OrigDataRate	OrigDataStartFrame	OrigNumFrames																																																																																																																																							
100	100	5	47	mm	100	1659	220																																																																																																																																							
Frame#	Time	LFHD			RFHD			LBHD			RBHD			C7			T10			CLAV			STRN			RBAK			LSHO			LUPA			LELB			LFRM			LWRA			LWRB			LFIN			RSHO			RUPA			RELB			RFRM			RWRA			RWRB			RFIN			LASI			RASI			LPSI			RPSI			LTHI			LKNE			LTIB			LANK			LHEE			LTOE			RTHI			RKNE			RTIB			RANK			RHEE			RTOE			*39			*40			*41			*42			*43			*44			*45			*46		
		X1	Y1	Z1	X2	Y2	Z2	X3	Y3	Z3	X4	Y4	Z4	X5	Y5	Z5	X6	Y6	Z6	X7	Y7	Z7	X8	Y8	Z8	X9	Y9	Z9	X10	Y10	Z10	X11	Y11	Z11	X12	Y12	Z12	X13	Y13	Z13	X14	Y14	Z14	X15	Y15	Z15	X16	Y16	Z16	X17	Y17	Z17	X18	Y18	Z18	X19	Y19	Z19	X20	Y20	Z20	X21	Y21	Z21	X22	Y22	Z22	X23	Y23	Z23	X24	Y24	Z24	X25	Y25	Z25	X26	Y26	Z26	X27	Y27	Z27	X28	Y28	Z28	X29	Y29	Z29	X30	Y30	Z30	X31	Y31	Z31	X32	Y32	Z32	X33	Y33	Z33	X34	Y34	Z34	X35	Y35	Z35	X36	Y36	Z36	X37	Y37	Z37	X38	Y38	Z38	X39	Y39	Z39	X40	Y40	Z40	X41	Y41	Z41	X42	Y42	Z42	X43	Y43	Z43	X44	Y44	Z44	X45	Y45	Z45	X46	Y46	Z46	X47	Y47	Z47
																																																																																																																																														
83	0.82	-417.9151	1635.9436	1344.95374	-414.6279	1644.18567	1478.01917	-536.41339	1572.35339	1355.90552	-528.505	1580.87573	1486.24561	-543.13757	1418.94617	1418.16833	-571.2948	1110.93909	1422.59717	-416.3967	1351.18152	1411.31384	-366.16858	1186.50049	1399.97998	-580.0365	1242.32727	1514.09143	-475.18948	1389.52661	1258.50513	-483.35306	1194.51721	1182.92334	-466.2291	1073.90491	1167.64355	-397.75015	965.9729	1169.02307	-324.95895	875.46368	1201.28223	-359.06873	857.94592	1162.52942	-303.07352	797.07587	1169.56079	-458.92551	1371.86951	1573.50574	-461.35449	1154.1897	1656.37842	-449.59256	1042.83191	1676.40771	-438.99957	906.26831	1686.89014	-414.86908	806.90076	1657.11609	-445.12335	806.76709	1702.78406	-429.83344	731.91394	1694.86133	-428.95129	939.44519	1299.0155	-405.49097	947.12836	1530.6925	-585.43335	963.87463	1362.96509	-567.97314	981.71204	1510.26733	-446.6297	636.41461	1251.00366	-411.31824	460.09979	1269.75989	-561.99359	333.53412	1284.02063	-710.75623	193.30814	1336.01904	-760.81702	196.25089	1379.224	-632.61646	66.63006	1350.91785	-447.13712	649.92706	1575.39673	-425.11905	475.68915	1527.37891	-472.90405	286.1954	1529.47815	-511.61728	74.62241	1477.94409	-560.14648	43.60708	1428.67175	-372.94174	38.69116	1461.53259	-507.16983	1685.05566	1398.66748	NaN	NaN	NaN	NaN	NaN	NaN	NaN	NaN	NaN	NaN	NaN	NaN	NaN	NaN	NaN	NaN	NaN	NaN	NaN	NaN	NaN
84	0.83	-405.43265	1636.56384	1344.92029	-401.96729	1644.6438	1477.97766	-523.84998	1572.8407	1355.9729	-515.75989	1581.20337	1486.29517	-530.29248	1419.32422	1418.3916	-558.22729	1111.42542	1423.1897	-403.53036	1351.73364	1411.15381	-353.29404	1187.01636	1400.04138	-566.63757	1242.89417	1514.64966	-462.92267	1389.80249	1258.48474	-472.55615	1194.62317	1183.0675	-456.13736	1073.58911	1167.6134	-391.07205	963.09955	1168.2793	-322.02509	869.26343	1199.82922	-356.31744	853.97198	1160.13879	-302.90048	790.93805	1166.51196	-445.38675	1372.43152	1573.40076	-444.36191	1154.67432	1656.12561	-430.96588	1043.4751	1675.82117	-418.32675	907.11334	1686.36377	-393.35507	808.23218	1656.10034	-422.34476	807.57593	1702.33459	-405.96585	733.17102	1694.26599	-414.8165	941.06964	1299.82947	-392.9361	947.19531	1531.21765	-572.02405	965.17419	1362.4801	-555.24103	982.03668	1509.97534	-426.51984	638.68219	1251.2467	-386.02405	463.57462	1270.56519	-532.01971	331.68066	1283.93018	-675.7041	185.48773	1334.86646	-726.36469	184.97546	1378.0293	-589.51959	64.55837	1348.13184	-438.4064	649.60187	1574.94482	-420.59927	474.75699	1527.34058	-471.07095	286.14444	1529.45264	-511.58923	74.84115	1477.64258	-560.01416	44.11292	1428.33105	-372.81729	38.59298	1461.49097	NaN	NaN	NaN	NaN	NaN	NaN	NaN	NaN	NaN	NaN	NaN	NaN	NaN	NaN	NaN	NaN	NaN	NaN	NaN	NaN	NaN	NaN	NaN	NaN
85	0.84	-392.7525	1636.90857	1344.87988	-389.24719	1644.88123	1477.93713	-511.23303	1573.09814	1355.95325	-503.02182	1581.38855	1486.29761	-517.76422	1419.45557	1418.29285	-545.21143	1111.73047	1423.71875	-390.80905	1351.9198	1410.89246	-340.49243	1187.19019	1400.1344	-553.65833	1243.5072	1515.37854	-450.51257	1389.8125	1258.4342	-461.76593	1194.47412	1183.24573	-446.32141	1073.26807	1167.60498	-384.66486	960.29913	1167.67737	-319.66489	863.07208	1198.54248	-353.95868	850.09814	1157.86182	-303.2449	784.99951	1163.61157	-431.92877	1372.82654	1573.26355	-427.5517	1155.12854	1655.85461	-412.52792	1044.06287	1675.31226	-397.6366	907.95721	1685.7749	-371.77133	809.23297	1654.8833	-399.79013	808.42578	1701.7179	-381.99829	734.43341	1693.57483	-400.82468	942.56409	1300.65137	-380.56555	947.10559	1531.89001	-558.56158	966.1228	1361.80347	-542.58759	982.20886	1509.59412	-406.94885	640.83319	1251.5658	-361.19815	466.96185	1271.72046	-502.05939	329.32635	1283.96838	-639.52728	176.69273	1333.87354	-690.60193	172.70544	1376.98914	-545.54346	62.28432	1345.21362	-429.59097	649.08838	1574.35742	-415.8862	473.84641	1527.38806	-468.7851	286.0051	1529.31128	-511.55002	75.11493	1477.35449	-559.81128	44.57866	1427.92737	-372.68488	38.46211	1461.40442	-484.41949	1686.54663	1401.19373	NaN	NaN	NaN	NaN	NaN	NaN	NaN	NaN	NaN	NaN	NaN	NaN	NaN	NaN	NaN	NaN	NaN	NaN	NaN	NaN	NaN
86	0.85	-380.19522	1636.87634	1344.70203	-376.45636	1644.86536	1477.81262	-498.48367	1573.10034	1355.93274	-490.22946	1581.35547	1486.29016	-504.64108	1419.35571	1418.45203	-532.14502	1111.78625	1424.07104	-377.81509	1351.97168	1410.75269	-327.5484	1187.19641	1400.29456	-540.29474	1243.84802	1515.96777	-437.86319	1389.62427	1258.33521	-450.30719	1194.27356	1183.38391	-436.28833	1072.62317	1167.66772	-378.39941	957.39099	1167.09229	-317.68317	857.05688	1197.25623	-351.92566	846.39587	1155.5946	-304.02435	779.20441	1160.76965	-418.38959	1373.02966	1573.17505	-410.91516	1155.44861	1655.62134	-394.2529	1044.62134	1674.8949	-376.97391	908.79565	1685.19958	-349.78955	810.58875	1653.84351	-377.0993	809.29883	1701.02759	-357.81348	735.72845	1692.8407	-386.97687	943.48663	1301.28662	-368.35846	946.77704	1532.57166	-545.10956	966.91205	1361.17456	-529.91815	982.07959	1509.25879	-387.59613	642.90692	1251.9281	-337.33603	470.60349	1272.62561	-472.19519	326.60403	1284.10596	-602.28906	166.98897	1333.01099	-653.30511	159.60085	1376.12549	-501.55804	59.08258	1343.07239	-420.90311	648.75055	1573.6189	-411.00244	472.97318	1527.30469	-466.02704	285.95886	1529.14075	-511.35843	75.48451	1477.16956	-559.86072	45.53967	1427.98779	-372.55457	38.34053	1461.30664	-469.09064	1685.26465	1398.75732	NaN	NaN	NaN	NaN	NaN	NaN	NaN	NaN	NaN	NaN	NaN	NaN	NaN	NaN	NaN	NaN	NaN	NaN	NaN	NaN	NaN
87	0.86	-367.41187	1636.71301	1344.58728	-363.66412	1644.68713	1477.51965	-485.81622	1572.8374	1355.89795	-477.3873	1581.15771	1486.22656	-491.96616	1419.00488	1418.34668	-519.27771	1111.71191	1424.32239	-364.98929	1351.69946	1410.57056	-314.69122	1186.93384	1400.50891	-527.01392	1244.0321	1516.58655	-425.0527	1389.17749	1258.32288	-438.86343	1193.79224	1183.54565	-426.35632	1071.85486	1167.62097	-372.39447	954.49561	1166.5625	-316.13617	851.04761	1195.97986	-350.07806	842.79333	1153.46851	-305.20209	773.54126	1158.09485	-405.00171	1373.08826	1573.02576	-394.55157	1155.69092	1655.35876	-376.31308	1045.10974	1674.57837	-356.43958	909.62299	1684.5708	-327.78091	812.03284	1652.72229	-354.43961	810.16919	1700.26477	-333.66266	737.15283	1691.96252	-372.96381	944.23401	1302.00696	-356.19952	946.23383	1533.28027	-531.77014	967.31543	1360.49475	-517.31421	981.7757	1508.71326	-368.70004	644.82922	1252.17249	-314.17087	473.9361	1273.86877	-442.45972	323.4837	1284.32715	-563.98376	156.8367	1332.28674	-615.0752	146.44237	1375.26746	-456.91498	55.64697	1340.9491	-412.46194	648.19727	1573.026	-405.94922	472.13196	1527.3606	-463.26212	285.85468	1528.98206	-511.15369	75.89076	1476.89587	-559.64435	46.21724	1427.65088	-372.41507	38.2826	1461.26123	-458.84863	1686.20923	1400.76038	NaN	NaN	NaN	NaN	NaN	NaN	NaN	NaN	NaN	NaN	NaN	NaN	NaN	NaN	NaN	NaN	NaN	NaN	NaN	NaN	NaN
